<svg height="64" viewBox="0 0 64 64" width="64" xmlns="http://www.w3.org/2000/svg"><g fill="none" fill-rule="evenodd"><path d="m20.8700786 56.0486749c-1.80023-1.6037334-3.9503979-4.4980888-5.8332828-8.0392804-3.2084509-6.0342184-4.4258324-11.6615825-2.7190977-12.5690695 1.7067348-.9074869 5.6912799 3.2485501 8.8997308 9.2827686 1.9540123 3.6749627 3.1695251 7.1990206 3.4357731 9.5979081l2.4996364-1.1415316 6.6719486 7h-18.998613c-1.6576203 0-1.7729388-.5610066-.278701-1.2433936z" fill="#80d25b"/><path d="m41.8700786 56.0486749c-1.80023-1.6037334-3.9503979-4.4980888-5.8332828-8.0392804-3.2084509-6.0342184-4.4258324-11.6615825-2.7190977-12.5690695 1.7067348-.9074869 5.6912799 3.2485501 8.8997308 9.2827686 1.9540123 3.6749627 3.1695251 7.1990206 3.4357731 9.5979081l2.4996364-1.1415316 6.6719486 7h-18.998613c-1.6576203 0-1.7729388-.5610066-.278701-1.2433936z" fill="#80d25b" transform="matrix(-1 0 0 1 87.37 0)"/><path d="m33 60.2100962c9.3888407 0 17-7.8212555 17-17.2100962s-7.6111593-17-17-17-17 7.6111593-17 17 7.6111593 17.2100962 17 17.2100962z" fill="#22ba8e"/><g fill="#80d25b"><ellipse cx="21" cy="8.5" rx="6" ry="6.5"/><ellipse cx="45" cy="8.5" rx="6" ry="6.5"/><circle cx="33" cy="22" r="19"/></g><ellipse cx="21" cy="9" fill="#595959" rx="4" ry="5"/><circle cx="21" cy="7" fill="#fff" r="1"/><ellipse cx="45" cy="9" fill="#595959" rx="4" ry="5"/><circle cx="45" cy="7" fill="#fff" r="1"/><path d="m19.9727439 29.4543869s6.5993819 2.0869041 13.1987637 2.0869041c6.5993819 0 13.1987638-2.0869041 13.1987638-2.0869041" stroke="#22ba8e" stroke-linecap="round" stroke-width="2"/></g></svg>