<svg height="64" viewBox="0 0 64 64" width="64" xmlns="http://www.w3.org/2000/svg"><g fill="none" fill-rule="evenodd"><circle cx="12" cy="14" fill="#9c4d4d" r="8"/><circle cx="12" cy="14" fill="#bd7575" r="6"/><circle cx="52" cy="14" fill="#9c4d4d" r="8"/><circle cx="52" cy="14" fill="#bd7575" r="6"/><circle cx="32" cy="28" fill="#9c4d4d" r="22"/><path d="m32 22.9990251c-1.8244576-2.4283389-4.7288021-3.9990251-8-3.9990251-5.5228475 0-10 4.4771525-10 10s4.4771525 10 10 10c3.2711979 0 6.1755424-1.5706862 8-3.9990251 1.8244576 2.4283389 4.7288021 3.9990251 8 3.9990251 5.5228475 0 10-4.4771525 10-10s-4.4771525-10-10-10c-3.2711979 0-6.1755424 1.5706862-8 3.9990251z" fill="#bd7575"/><path d="m32 58c5.5228475 0 10-4.4771525 10-10s-4.4771525-16-10-16-10 10.4771525-10 16 4.4771525 10 10 10z" fill="#bd7575"/><path d="m21.9100611 47.5549234c3.0222154 1.5625633 6.4530161 2.4450766 10.0899389 2.4450766 3.5565291 0 6.9159481-.8439289 9.8889253-2.342455" stroke="#9c4d4d" stroke-linecap="round" stroke-width="2"/><circle cx="24" cy="27" fill="#ffaf40" r="4"/><circle cx="41" cy="27" fill="#ffaf40" r="4"/><circle cx="24" cy="27" fill="#595959" r="2"/><circle cx="41" cy="27" fill="#595959" r="2"/><path d="m30.6980894 36.5188957c.7190254-.8388629 1.8881404-.834961 2.6038212 0l3.3961788 3.9622086c.7190254.8388629.3999602 1.5188957-.7066196 1.5188957h-7.9829396c-1.1092806 0-1.4223004-.6839347-.7066196-1.5188957z" fill="#9c4d4d"/></g></svg>