<svg height="64" viewBox="0 0 64 64" width="64" xmlns="http://www.w3.org/2000/svg"><g fill="none" fill-rule="evenodd"><path d="m10 22.9905507c0-8.8313373 7.1672873-15.9905507 16.0094779-15.9905507h11.9810442c8.8417905 0 16.0094779 7.1621582 16.0094779 15.9905507v36.0094493h-44z" fill="#bd7575"/><path d="m32 5 25 16-25-3.57-25 3.57z" fill="#9c4d4d" transform="matrix(1 0 0 -1 0 26)"/><path d="m14 42c0 1.6568542 1.3431458 3 3 3s3-1.3431458 3-3zm12 0c0 1.6568542 1.3431458 3 3 3s3-1.3431458 3-3zm12 0c0 1.6568542 1.3431458 3 3 3s3-1.3431458 3-3z" fill="#9c4d4d"/><path d="m20 42c0 1.6568542 1.3431458 3 3 3s3-1.3431458 3-3zm12 0c0 1.6568542 1.3431458 3 3 3s3-1.3431458 3-3zm12 0c0 1.6568542 1.3431458 3 3 3s3-1.3431458 3-3z" fill="#ffaf40"/><path d="m20 47c0 1.6568542 1.3431458 3 3 3s3-1.3431458 3-3zm12 0c0 1.6568542 1.3431458 3 3 3s3-1.3431458 3-3zm12 0c0 1.6568542 1.3431458 3 3 3s3-1.3431458 3-3z" fill="#9c4d4d"/><path d="m26 47c0 1.6568542 1.3431458 3 3 3s3-1.3431458 3-3zm12 0c0 1.6568542 1.3431458 3 3 3s3-1.3431458 3-3zm-24 0c0 1.6568542 1.3431458 3 3 3s3-1.3431458 3-3zm18-17.8058157 5 3.8058157s-3.3972405 1.3038534-5 1.3038534-5-1.3038534-5-1.3038534z" fill="#ffaf40"/><circle cx="22" cy="25" fill="#ffaf40" r="6" stroke="#0a3586" stroke-linecap="round" stroke-width="2"/><circle cx="22" cy="25" fill="#0a3586" r="2"/><circle cx="42" cy="25" fill="#ffaf40" r="6" stroke="#0a3586" stroke-linecap="round" stroke-width="2"/><circle cx="42" cy="25" fill="#0a3586" r="2"/></g></svg>