<svg width="1451" height="1467" viewBox="0 0 1451 1467" fill="none" xmlns="http://www.w3.org/2000/svg">
<g opacity="0.1" clip-path="url(#clip0_66_2)">
<path d="M921.342 360.868C930.455 349.605 935.536 335.815 935.536 321.644C935.536 285.418 903.459 255.941 864.009 255.941C847.261 255.941 831.434 261.189 818.686 270.846C807.623 264.761 795.116 261.57 782.092 261.57C742.656 261.57 710.565 291.039 710.565 327.272C710.565 329.543 710.706 331.834 710.982 334.132C684.583 344.163 666.874 367.943 666.874 394.782C666.874 430.26 697.641 459.252 735.955 460.443C749.679 479.722 773.073 491.47 798.47 491.47C819.263 491.47 838.726 483.682 852.826 469.899C858.303 471.11 863.881 471.727 869.473 471.727C908.903 471.727 941 442.257 941 406.031C941 389.174 933.822 372.975 921.342 360.868ZM869.473 450.959C863.76 450.959 858.075 450.093 852.537 448.397C848.767 447.234 844.687 448.439 842.087 451.478C831.623 463.703 815.702 471.616 798.47 470.702C744.672 467.878 745.122 428.869 745.115 420.458C745.109 413.729 746.029 409.534 746.029 409.534C747.145 404.612 739.92 402.895 738.825 407.803C739.732 404.702 734.248 421.42 737.541 439.675C709.631 439.266 687.043 419.302 687.043 394.782C687.043 374.574 702.648 356.763 724.994 351.467C727.709 350.823 730.048 349.044 731.446 346.566C732.844 344.087 733.186 341.11 732.387 338.362C731.291 334.596 730.733 330.865 730.733 327.279C730.733 302.503 753.778 282.344 782.099 282.344C793.732 282.344 804.747 285.723 813.948 292.119C817.798 294.812 822.953 294.424 826.401 291.171C836.273 281.853 849.634 276.716 864.029 276.716C892.356 276.716 915.395 296.875 915.395 321.651C915.395 333.793 909.864 345.202 899.816 353.786C899.816 353.786 883.21 351.058 874.285 352.034C868.035 352.713 868.774 359.345 872.867 359.878C872.88 359.878 876.724 360.383 882.551 362.107C887.82 363.713 894.547 366.433 900.509 370.282C900.589 370.338 900.643 370.414 900.71 370.462C913.506 379.095 920.845 392.061 920.845 406.031C920.838 430.8 897.793 450.959 869.473 450.959Z" fill="black"/>
<path d="M921.342 360.868C930.455 349.605 935.536 335.815 935.536 321.644C935.536 285.418 903.459 255.941 864.009 255.941C847.261 255.941 831.434 261.189 818.686 270.846C807.623 264.761 795.116 261.57 782.092 261.57C742.656 261.57 710.565 291.039 710.565 327.272C710.565 329.543 710.706 331.834 710.982 334.132C684.583 344.163 666.874 367.943 666.874 394.782C666.874 430.26 697.641 459.252 735.955 460.443C749.679 479.722 773.073 491.47 798.47 491.47C819.263 491.47 838.726 483.682 852.826 469.899C858.303 471.11 863.881 471.727 869.473 471.727C908.903 471.727 941 442.257 941 406.031C941 389.174 933.822 372.975 921.342 360.868ZM869.473 450.959C863.76 450.959 858.075 450.093 852.537 448.397C848.767 447.234 844.687 448.439 842.087 451.478C831.623 463.703 815.702 471.616 798.47 470.702C744.672 467.878 745.122 428.869 745.115 420.458C745.109 413.729 746.029 409.534 746.029 409.534C747.145 404.612 739.92 402.895 738.825 407.803C739.732 404.702 734.248 421.42 737.541 439.675C709.631 439.266 687.043 419.302 687.043 394.782C687.043 374.574 702.648 356.763 724.994 351.467C727.709 350.823 730.048 349.044 731.446 346.566C732.844 344.087 733.186 341.11 732.387 338.362C731.291 334.596 730.733 330.865 730.733 327.279C730.733 302.503 753.778 282.344 782.099 282.344C793.732 282.344 804.747 285.723 813.948 292.119C817.798 294.812 822.953 294.424 826.401 291.171C836.273 281.853 849.634 276.716 864.029 276.716C892.356 276.716 915.395 296.875 915.395 321.651C915.395 333.793 909.864 345.202 899.816 353.786C899.816 353.786 883.21 351.058 874.285 352.034C868.035 352.713 868.774 359.345 872.867 359.878C872.88 359.878 876.724 360.383 882.551 362.107C887.82 363.713 894.547 366.433 900.509 370.282C900.589 370.338 900.643 370.414 900.71 370.462C913.506 379.095 920.845 392.061 920.845 406.031C920.838 430.8 897.793 450.959 869.473 450.959Z" fill="black"/>
<path d="M697.668 464.195C681.902 464.195 669.079 477.403 669.079 493.637C669.079 509.877 681.902 523.079 697.668 523.079C713.428 523.079 726.251 509.877 726.251 493.637C726.251 477.403 713.428 464.195 697.668 464.195ZM697.668 509.24C689.314 509.24 682.52 502.242 682.52 493.644C682.52 485.053 689.314 478.04 697.668 478.04C706.015 478.04 712.81 485.039 712.81 493.637C712.81 502.235 706.015 509.24 697.668 509.24Z" fill="black"/>
<path d="M650.624 514.965C639.804 514.965 631 524.034 631 535.172C631 546.311 639.804 555.38 650.624 555.38C661.437 555.38 670.241 546.311 670.241 535.172C670.241 524.034 661.437 514.965 650.624 514.965ZM650.624 541.541C647.217 541.541 644.441 538.682 644.441 535.179C644.441 531.677 647.217 528.817 650.624 528.817C654.031 528.817 656.8 531.677 656.8 535.179C656.8 538.682 654.031 541.541 650.624 541.541Z" fill="black"/>
<path d="M790.204 292.915C776.682 291.655 749.625 296.868 744.195 325.604C743.489 329.356 745.861 332.99 749.504 333.717C749.934 333.807 750.371 333.849 750.794 333.849C753.946 333.849 756.762 331.55 757.38 328.248C761.823 304.732 787.784 306.615 789.001 306.705C792.778 307.01 795.95 304.234 796.279 300.433C796.629 296.619 793.9 293.261 790.204 292.915Z" fill="black"/>
<path d="M697.668 464.195C681.902 464.195 669.079 477.403 669.079 493.637C669.079 509.877 681.902 523.079 697.668 523.079C713.428 523.079 726.251 509.877 726.251 493.637C726.251 477.403 713.428 464.195 697.668 464.195ZM697.668 509.24C689.314 509.24 682.52 502.242 682.52 493.644C682.52 485.053 689.314 478.04 697.668 478.04C706.015 478.04 712.81 485.039 712.81 493.637C712.81 502.235 706.015 509.24 697.668 509.24Z" fill="black"/>
<path d="M650.624 514.965C639.804 514.965 631 524.034 631 535.172C631 546.311 639.804 555.38 650.624 555.38C661.437 555.38 670.241 546.311 670.241 535.172C670.241 524.034 661.437 514.965 650.624 514.965ZM650.624 541.541C647.217 541.541 644.441 538.682 644.441 535.179C644.441 531.677 647.217 528.818 650.624 528.818C654.031 528.818 656.8 531.677 656.8 535.179C656.8 538.682 654.031 541.541 650.624 541.541Z" fill="black"/>
<path d="M790.204 292.915C776.682 291.655 749.625 296.868 744.195 325.604C743.489 329.356 745.861 332.99 749.504 333.717C749.934 333.807 750.371 333.849 750.794 333.849C753.946 333.849 756.762 331.55 757.38 328.248C761.823 304.732 787.784 306.615 789.001 306.705C792.778 307.01 795.95 304.234 796.279 300.433C796.629 296.619 793.9 293.261 790.204 292.915Z" fill="black"/>
</g>
<g opacity="0.1" clip-path="url(#clip1_66_2)">
<path d="M22.6577 329.88C13.5446 318.617 8.46384 304.827 8.46384 290.657C8.46384 254.431 40.5411 224.954 79.9909 224.954C96.7386 224.954 112.566 230.201 125.314 239.859C136.377 233.774 148.884 230.582 161.908 230.582C201.344 230.582 233.435 260.052 233.435 296.285C233.435 298.555 233.294 300.847 233.018 303.145C259.417 313.176 277.126 336.955 277.126 363.794C277.126 399.273 246.359 428.265 208.045 429.455C194.321 448.735 170.927 460.483 145.53 460.483C124.736 460.483 105.274 452.695 91.1739 438.912C85.6967 440.123 80.1186 440.739 74.5271 440.739C35.0975 440.739 3.00001 411.27 3.00001 375.044C3.00001 358.187 10.1776 341.988 22.6577 329.88ZM74.5271 419.971C80.2396 419.971 85.9252 419.106 91.4629 417.41C95.2332 416.247 99.3126 417.452 101.913 420.491C112.377 432.716 128.298 440.629 145.53 439.715C199.328 436.89 198.878 397.881 198.885 389.47C198.891 382.742 197.971 378.546 197.971 378.546C196.855 373.624 204.08 371.908 205.175 376.816C204.268 373.714 209.752 390.433 206.459 408.688C234.369 408.279 256.957 388.314 256.957 363.794C256.957 343.587 241.352 325.775 219.006 320.479C216.291 319.836 213.952 318.057 212.554 315.578C211.156 313.1 210.814 310.123 211.613 307.375C212.709 303.609 213.267 299.878 213.267 296.292C213.267 271.516 190.222 251.357 161.901 251.357C150.268 251.357 139.253 254.735 130.052 261.132C126.202 263.825 121.047 263.437 117.599 260.183C107.727 250.865 94.3662 245.729 79.9707 245.729C51.6435 245.729 28.6054 265.888 28.6054 290.664C28.6054 302.806 34.1364 314.214 44.1837 322.798C44.1837 322.798 60.7902 320.071 69.7151 321.047C75.9653 321.725 75.226 328.357 71.1332 328.89C71.1198 328.89 67.2756 329.396 61.4489 331.119C56.1799 332.726 49.4526 335.446 43.4915 339.295C43.4108 339.35 43.3571 339.427 43.2899 339.475C30.4939 348.108 23.155 361.074 23.155 375.044C23.1617 399.813 46.2066 419.971 74.5271 419.971Z" fill="black"/>
<path d="M246.332 433.208C262.098 433.208 274.921 446.416 274.921 462.649C274.921 478.89 262.098 492.091 246.332 492.091C230.572 492.091 217.749 478.89 217.749 462.649C217.749 446.416 230.572 433.208 246.332 433.208ZM246.332 478.253C254.686 478.253 261.48 471.254 261.48 462.656C261.48 454.065 254.686 447.053 246.332 447.053C237.985 447.053 231.19 454.052 231.19 462.649C231.19 471.247 237.985 478.253 246.332 478.253Z" fill="black"/>
<path d="M293.376 483.978C304.196 483.978 313 493.047 313 504.185C313 515.324 304.196 524.392 293.376 524.392C282.563 524.392 273.759 515.324 273.759 504.185C273.759 493.047 282.563 483.978 293.376 483.978ZM293.376 510.554C296.783 510.554 299.559 507.695 299.559 504.192C299.559 500.689 296.783 497.83 293.376 497.83C289.969 497.83 287.2 500.689 287.2 504.192C287.2 507.695 289.969 510.554 293.376 510.554Z" fill="black"/>
<path d="M153.796 261.928C167.318 260.668 194.375 265.881 199.805 294.617C200.511 298.369 198.139 302.003 194.496 302.73C194.066 302.82 193.629 302.861 193.206 302.861C190.054 302.861 187.238 300.563 186.62 297.261C182.177 273.745 156.216 275.628 154.999 275.718C151.222 276.022 148.05 273.246 147.721 269.446C147.371 265.632 150.1 262.274 153.796 261.928Z" fill="black"/>
</g>
<path opacity="0.05" d="M1044.99 543.925C1003.69 558.958 976.633 579.884 962.675 602.01C948.716 624.136 948.761 645.426 951.536 660.609L1001.91 647.815C1000.43 637.7 1000.89 626.878 1007.52 616.369C1014.15 605.859 1026.13 593.403 1058.68 581.554C1090.75 569.881 1110.44 569.535 1122.62 572.771C1134.81 576.007 1141.71 582.87 1145.27 592.654C1156.63 623.886 1143.26 638.554 1124.99 663.953C1106.72 689.353 1083.42 725.108 1099.44 769.134L1102.87 778.541L1151.46 760.855L1148.03 751.448C1136.67 720.216 1148.58 706.079 1166.85 680.679C1185.12 655.279 1209.88 618.994 1193.86 574.968C1187.28 556.906 1171.63 539.593 1145.88 532.346C1119.64 525.276 1085.81 529.069 1044.99 543.925ZM1116.56 816.17L1130.26 853.799L1178.85 836.113L1165.15 798.484L1116.56 816.17Z" fill="black"/>
<path opacity="0.05" d="M1045.28 65.6538C1004.23 65.6538 973.807 75.3839 954.491 90.3533C935.175 105.323 928.414 124.034 926 138.255L974.29 143.12C976.221 133.764 980.085 124.409 989.26 117.298C998.435 110.188 1012.92 103.077 1045.28 103.077C1077.15 103.077 1094.53 109.065 1104.19 115.801C1113.85 122.537 1117.71 130.771 1117.71 140.501C1117.71 171.562 1101.29 180.17 1077.15 196.636C1053 213.102 1021.13 237.053 1021.13 280.839V290.194H1069.42V280.839C1069.42 249.777 1084.39 241.17 1108.54 224.703C1132.68 208.237 1166 184.286 1166 140.501C1166 122.537 1157.79 102.329 1137.51 87.7336C1116.74 73.1385 1085.84 65.6538 1045.28 65.6538ZM1021.13 327.618V365.041H1069.42V327.618H1021.13Z" fill="black"/>
<path opacity="0.05" d="M374.658 667.332C333.562 660.085 301.387 664.44 279.409 675.993C257.431 687.545 247.365 705.055 242.441 718.843L289.932 732.231C293.515 723.221 299.032 714.551 309.471 709.063C319.911 703.576 335.668 699.026 368.062 704.738C399.972 710.365 416.322 719.419 424.805 727.857C433.287 736.295 435.704 745.207 433.989 754.933C428.515 785.98 410.559 791.685 383.483 803.881C356.406 816.078 320.275 834.391 312.558 878.157L310.909 887.508L359.258 896.034L360.907 886.682C366.381 855.635 382.886 849.674 409.963 837.478C437.039 825.281 474.621 807.223 482.338 763.458C485.504 745.503 480.847 723.854 463.112 705.685C444.895 687.43 415.271 674.493 374.658 667.332ZM304.313 924.915L297.717 962.322L346.066 970.847L352.662 933.44L304.313 924.915Z" fill="black"/>
<path opacity="0.05" d="M70.5714 665.151C46.2857 665.151 28.2857 672.315 16.8571 683.337C5.42857 694.359 1.42857 708.136 0 718.607L28.5714 722.189C29.7143 715.3 32 708.411 37.4286 703.176C42.8571 697.941 51.4286 692.706 70.5714 692.706C89.4286 692.706 99.7143 697.114 105.429 702.074C111.143 707.034 113.429 713.096 113.429 720.26C113.429 743.13 103.714 749.467 89.4286 761.591C75.1429 773.715 56.2857 791.35 56.2857 823.588V830.477H84.8571V823.588C84.8571 800.718 93.7143 794.381 108 782.257C122.286 770.133 142 752.498 142 720.26C142 707.034 137.143 692.155 125.143 681.408C112.857 670.662 94.5714 665.151 70.5714 665.151ZM56.2857 858.031V885.585H84.8571V858.031H56.2857Z" fill="black"/>
<path opacity="0.05" d="M1324.57 902.066C1300.29 902.066 1282.29 907.824 1270.86 916.683C1259.43 925.542 1255.43 936.615 1254 945.03L1282.57 947.909C1283.71 942.373 1286 936.836 1291.43 932.628C1296.86 928.421 1305.43 924.213 1324.57 924.213C1343.43 924.213 1353.71 927.756 1359.43 931.743C1365.14 935.729 1367.43 940.601 1367.43 946.359C1367.43 964.741 1357.71 969.834 1343.43 979.579C1329.14 989.323 1310.29 1003.5 1310.29 1029.41V1034.94H1338.86V1029.41C1338.86 1011.03 1347.71 1005.93 1362 996.189C1376.29 986.444 1396 972.27 1396 946.359C1396 935.729 1391.14 923.77 1379.14 915.133C1366.86 906.496 1348.57 902.066 1324.57 902.066ZM1310.29 1057.09V1079.24H1338.86V1057.09H1310.29Z" fill="black"/>
<path opacity="0.05" d="M715.071 9.3413C693.433 11.2344 677.854 17.8733 668.376 26.8194C658.898 35.7655 656.216 46.1464 655.612 53.9102L681.297 54.301C681.875 49.1774 683.471 43.9647 687.973 39.7153C692.475 35.4659 699.777 30.9716 716.833 29.4794C733.634 28.0095 743.08 30.4298 748.488 33.6093C753.896 36.7887 756.32 41.0409 756.779 46.2768C758.241 62.9914 749.991 68.3804 738.038 78.3547C726.085 88.329 710.412 102.687 712.473 126.249L712.914 131.283L738.37 129.056L737.929 124.022C736.467 107.307 743.953 101.985 755.906 92.0107C767.859 82.0363 784.296 67.6112 782.235 44.0497C781.389 34.3834 776.11 23.8874 764.731 16.969C753.098 10.0728 736.454 7.47052 715.071 9.3413ZM714.676 151.421L716.438 171.56L741.894 169.332L740.132 149.194L714.676 151.421Z" fill="black"/>
<path opacity="0.05" d="M386.264 52.2632C344.533 52.2632 313.604 62.1389 293.966 77.3324C274.328 92.5258 267.455 111.518 265 125.951L314.095 130.889C316.058 121.393 319.986 111.897 329.314 104.681C338.642 97.4637 353.37 90.2468 386.264 90.2468C418.666 90.2468 436.34 96.3242 446.159 103.161C455.978 109.998 459.905 118.355 459.905 128.23C459.905 159.757 443.213 168.493 418.666 185.206C394.119 201.919 361.716 226.228 361.716 270.669V280.165H410.811V270.669C410.811 239.143 426.03 230.406 450.577 213.694C475.125 196.981 509 172.671 509 128.23C509 109.998 500.654 89.4871 480.034 74.6735C458.924 59.8599 427.503 52.2632 386.264 52.2632ZM361.716 318.149V356.132H410.811V318.149H361.716Z" fill="black"/>
<path opacity="0.05" d="M1326.61 250.987C1286.3 240.186 1253.87 241.72 1230.97 251.313C1208.07 260.907 1196.52 277.472 1190.41 290.779L1236.55 308.255C1240.91 299.591 1247.16 291.435 1258.04 286.879C1268.91 282.322 1285.01 279.163 1316.78 287.676C1348.08 296.063 1363.58 306.507 1371.29 315.653C1379.01 324.798 1380.64 333.886 1378.08 343.426C1369.92 373.878 1351.54 377.996 1323.5 387.786C1295.47 397.576 1257.88 412.671 1246.37 455.597L1243.92 464.77L1291.34 477.476L1293.8 468.304C1301.96 437.852 1318.92 433.352 1346.95 423.562C1374.99 413.772 1414 399.059 1425.5 356.132C1430.22 338.521 1427.47 316.549 1411.39 296.903C1394.83 277.131 1366.45 261.66 1326.61 250.987ZM1234.09 501.459L1224.25 538.149L1271.68 550.855L1281.51 514.166L1234.09 501.459Z" fill="black"/>
<path opacity="0.05" d="M1158.57 1277.26C1130.07 1279.25 1109.38 1286.71 1096.61 1296.84C1083.85 1306.98 1079.96 1318.8 1078.89 1327.65L1112.62 1328.3C1113.56 1322.46 1115.84 1316.52 1121.9 1311.71C1127.97 1306.89 1137.72 1301.82 1160.17 1300.25C1182.3 1298.7 1194.62 1301.54 1201.61 1305.21C1208.61 1308.88 1211.64 1313.75 1212.06 1319.73C1213.4 1338.81 1202.37 1344.89 1186.32 1356.18C1170.26 1367.47 1149.17 1383.73 1151.05 1410.63L1151.45 1416.38L1184.97 1414.04L1184.57 1408.29C1183.24 1389.21 1193.26 1383.19 1209.31 1371.9C1225.36 1360.62 1247.46 1344.28 1245.58 1317.38C1244.81 1306.35 1238.24 1294.33 1223.54 1286.35C1208.5 1278.39 1186.72 1275.29 1158.57 1277.26ZM1153.06 1439.37L1154.67 1462.36L1188.19 1460.02L1186.58 1437.03L1153.06 1439.37Z" fill="black"/>
<g opacity="0.1" clip-path="url(#clip2_66_2)">
<path d="M816.342 764.868C825.455 753.605 830.536 739.815 830.536 725.644C830.536 689.418 798.459 659.941 759.009 659.941C742.261 659.941 726.434 665.189 713.686 674.846C702.623 668.761 690.116 665.57 677.092 665.57C637.656 665.57 605.565 695.039 605.565 731.272C605.565 733.543 605.706 735.834 605.982 738.132C579.583 748.163 561.874 771.943 561.874 798.782C561.874 834.26 592.641 863.252 630.955 864.443C644.679 883.722 668.073 895.47 693.47 895.47C714.263 895.47 733.726 887.682 747.826 873.899C753.303 875.11 758.881 875.727 764.473 875.727C803.903 875.727 836 846.257 836 810.031C836 793.174 828.822 776.975 816.342 764.868ZM764.473 854.959C758.76 854.959 753.075 854.093 747.537 852.397C743.767 851.234 739.687 852.439 737.087 855.478C726.623 867.703 710.702 875.616 693.47 874.702C639.672 871.878 640.122 832.869 640.115 824.458C640.109 817.729 641.029 813.534 641.029 813.534C642.145 808.612 634.92 806.895 633.825 811.803C634.732 808.702 629.248 825.42 632.541 843.675C604.631 843.266 582.043 823.302 582.043 798.782C582.043 778.574 597.648 760.763 619.994 755.467C622.709 754.823 625.048 753.044 626.446 750.566C627.844 748.087 628.186 745.11 627.387 742.362C626.291 738.596 625.733 734.865 625.733 731.279C625.733 706.503 648.778 686.344 677.099 686.344C688.732 686.344 699.747 689.723 708.948 696.119C712.798 698.812 717.953 698.424 721.401 695.171C731.273 685.853 744.634 680.716 759.029 680.716C787.356 680.716 810.395 700.875 810.395 725.651C810.395 737.793 804.864 749.202 794.816 757.786C794.816 757.786 778.21 755.058 769.285 756.034C763.035 756.713 763.774 763.345 767.867 763.878C767.88 763.878 771.724 764.383 777.551 766.107C782.82 767.713 789.547 770.433 795.509 774.282C795.589 774.338 795.643 774.414 795.71 774.462C808.506 783.095 815.845 796.061 815.845 810.031C815.838 834.8 792.793 854.959 764.473 854.959Z" fill="black"/>
<path d="M816.342 764.868C825.455 753.605 830.536 739.815 830.536 725.644C830.536 689.418 798.459 659.941 759.009 659.941C742.261 659.941 726.434 665.189 713.686 674.846C702.623 668.761 690.116 665.57 677.092 665.57C637.656 665.57 605.565 695.039 605.565 731.272C605.565 733.543 605.706 735.834 605.982 738.132C579.583 748.163 561.874 771.943 561.874 798.782C561.874 834.26 592.641 863.252 630.955 864.443C644.679 883.722 668.073 895.47 693.47 895.47C714.263 895.47 733.726 887.682 747.826 873.899C753.303 875.11 758.881 875.727 764.473 875.727C803.903 875.727 836 846.257 836 810.031C836 793.174 828.822 776.975 816.342 764.868ZM764.473 854.959C758.76 854.959 753.075 854.093 747.537 852.397C743.767 851.234 739.687 852.439 737.087 855.478C726.623 867.703 710.702 875.616 693.47 874.702C639.672 871.878 640.122 832.869 640.115 824.458C640.109 817.729 641.029 813.534 641.029 813.534C642.145 808.612 634.92 806.895 633.825 811.803C634.732 808.702 629.248 825.42 632.541 843.675C604.631 843.266 582.043 823.302 582.043 798.782C582.043 778.574 597.648 760.763 619.994 755.467C622.709 754.823 625.048 753.044 626.446 750.566C627.844 748.087 628.186 745.11 627.387 742.362C626.291 738.596 625.733 734.865 625.733 731.279C625.733 706.503 648.778 686.344 677.099 686.344C688.732 686.344 699.747 689.723 708.948 696.119C712.798 698.812 717.953 698.424 721.401 695.171C731.273 685.853 744.634 680.716 759.029 680.716C787.356 680.716 810.395 700.875 810.395 725.651C810.395 737.793 804.864 749.202 794.816 757.786C794.816 757.786 778.21 755.058 769.285 756.034C763.035 756.713 763.774 763.345 767.867 763.878C767.88 763.878 771.724 764.383 777.551 766.107C782.82 767.713 789.547 770.433 795.509 774.282C795.589 774.338 795.643 774.414 795.71 774.462C808.506 783.095 815.845 796.061 815.845 810.031C815.838 834.8 792.793 854.959 764.473 854.959Z" fill="black"/>
<path d="M592.668 868.195C576.902 868.195 564.079 881.403 564.079 897.637C564.079 913.877 576.902 927.079 592.668 927.079C608.428 927.079 621.251 913.877 621.251 897.637C621.251 881.403 608.428 868.195 592.668 868.195ZM592.668 913.24C584.314 913.24 577.52 906.242 577.52 897.644C577.52 889.053 584.314 882.04 592.668 882.04C601.015 882.04 607.81 889.039 607.81 897.637C607.81 906.235 601.015 913.24 592.668 913.24Z" fill="black"/>
<path d="M545.624 918.965C534.804 918.965 526 928.034 526 939.172C526 950.311 534.804 959.38 545.624 959.38C556.437 959.38 565.241 950.311 565.241 939.172C565.241 928.034 556.437 918.965 545.624 918.965ZM545.624 945.541C542.217 945.541 539.441 942.682 539.441 939.179C539.441 935.677 542.217 932.817 545.624 932.817C549.031 932.817 551.8 935.677 551.8 939.179C551.8 942.682 549.031 945.541 545.624 945.541Z" fill="black"/>
<path d="M685.204 696.915C671.682 695.655 644.625 700.868 639.195 729.604C638.489 733.356 640.861 736.99 644.504 737.717C644.934 737.807 645.371 737.849 645.794 737.849C648.946 737.849 651.762 735.55 652.38 732.248C656.823 708.732 682.784 710.615 684.001 710.705C687.778 711.01 690.95 708.234 691.279 704.433C691.629 700.619 688.9 697.261 685.204 696.915Z" fill="black"/>
<path d="M592.668 868.195C576.902 868.195 564.079 881.403 564.079 897.637C564.079 913.877 576.902 927.079 592.668 927.079C608.428 927.079 621.251 913.877 621.251 897.637C621.251 881.403 608.428 868.195 592.668 868.195ZM592.668 913.24C584.314 913.24 577.52 906.242 577.52 897.644C577.52 889.053 584.314 882.04 592.668 882.04C601.015 882.04 607.81 889.039 607.81 897.637C607.81 906.235 601.015 913.24 592.668 913.24Z" fill="black"/>
<path d="M545.624 918.965C534.804 918.965 526 928.034 526 939.172C526 950.311 534.804 959.38 545.624 959.38C556.437 959.38 565.241 950.311 565.241 939.172C565.241 928.034 556.437 918.965 545.624 918.965ZM545.624 945.541C542.217 945.541 539.441 942.682 539.441 939.179C539.441 935.677 542.217 932.818 545.624 932.818C549.031 932.818 551.8 935.677 551.8 939.179C551.8 942.682 549.031 945.541 545.624 945.541Z" fill="black"/>
<path d="M685.204 696.915C671.682 695.655 644.625 700.868 639.195 729.604C638.489 733.356 640.861 736.99 644.504 737.717C644.934 737.807 645.371 737.849 645.794 737.849C648.946 737.849 651.762 735.55 652.38 732.248C656.823 708.732 682.784 710.615 684.001 710.705C687.778 711.01 690.95 708.234 691.279 704.433C691.629 700.619 688.9 697.261 685.204 696.915Z" fill="black"/>
</g>
<g opacity="0.1" clip-path="url(#clip3_66_2)">
<path d="M293.342 1194.1C302.455 1182.84 307.536 1169.05 307.536 1154.88C307.536 1118.65 275.459 1089.18 236.009 1089.18C219.261 1089.18 203.434 1094.43 190.686 1104.08C179.623 1098 167.116 1094.81 154.092 1094.81C114.656 1094.81 82.5649 1124.28 82.5649 1160.51C82.5649 1162.78 82.706 1165.07 82.9816 1167.37C56.5832 1177.4 38.8745 1201.18 38.8745 1228.02C38.8745 1263.5 69.6412 1292.49 107.955 1293.68C121.679 1312.96 145.073 1324.71 170.47 1324.71C191.264 1324.71 210.726 1316.92 224.826 1303.14C230.303 1304.35 235.881 1304.96 241.473 1304.96C280.903 1304.96 313 1275.49 313 1239.27C313 1222.41 305.822 1206.21 293.342 1194.1ZM241.473 1284.2C235.76 1284.2 230.075 1283.33 224.537 1281.63C220.767 1280.47 216.687 1281.68 214.087 1284.71C203.623 1296.94 187.702 1304.85 170.47 1303.94C116.672 1301.11 117.122 1262.11 117.115 1253.69C117.109 1246.97 118.029 1242.77 118.029 1242.77C119.145 1237.85 111.92 1236.13 110.825 1241.04C111.732 1237.94 106.248 1254.66 109.541 1272.91C81.6307 1272.5 59.0429 1252.54 59.0429 1228.02C59.0429 1207.81 74.6481 1190 96.994 1184.7C99.7091 1184.06 102.048 1182.28 103.446 1179.8C104.844 1177.32 105.186 1174.35 104.387 1171.6C103.291 1167.83 102.733 1164.1 102.733 1160.52C102.733 1135.74 125.778 1115.58 154.099 1115.58C165.732 1115.58 176.747 1118.96 185.948 1125.36C189.798 1128.05 194.953 1127.66 198.401 1124.41C208.273 1115.09 221.634 1109.95 236.029 1109.95C264.356 1109.95 287.395 1130.11 287.395 1154.89C287.395 1167.03 281.864 1178.44 271.816 1187.02C271.816 1187.02 255.21 1184.3 246.285 1185.27C240.035 1185.95 240.774 1192.58 244.867 1193.11C244.88 1193.11 248.724 1193.62 254.551 1195.34C259.82 1196.95 266.547 1199.67 272.509 1203.52C272.589 1203.57 272.643 1203.65 272.71 1203.7C285.506 1212.33 292.845 1225.3 292.845 1239.27C292.838 1264.04 269.793 1284.2 241.473 1284.2Z" fill="black"/>
<path d="M293.342 1194.1C302.455 1182.84 307.536 1169.05 307.536 1154.88C307.536 1118.65 275.459 1089.18 236.009 1089.18C219.261 1089.18 203.434 1094.43 190.686 1104.08C179.623 1098 167.116 1094.81 154.092 1094.81C114.656 1094.81 82.5649 1124.28 82.5649 1160.51C82.5649 1162.78 82.706 1165.07 82.9816 1167.37C56.5832 1177.4 38.8745 1201.18 38.8745 1228.02C38.8745 1263.5 69.6412 1292.49 107.955 1293.68C121.679 1312.96 145.073 1324.71 170.47 1324.71C191.264 1324.71 210.726 1316.92 224.826 1303.14C230.303 1304.35 235.881 1304.96 241.473 1304.96C280.903 1304.96 313 1275.49 313 1239.27C313 1222.41 305.822 1206.21 293.342 1194.1ZM241.473 1284.2C235.76 1284.2 230.075 1283.33 224.537 1281.63C220.767 1280.47 216.687 1281.68 214.087 1284.71C203.623 1296.94 187.702 1304.85 170.47 1303.94C116.672 1301.11 117.122 1262.11 117.115 1253.69C117.109 1246.97 118.029 1242.77 118.029 1242.77C119.145 1237.85 111.92 1236.13 110.825 1241.04C111.732 1237.94 106.248 1254.66 109.541 1272.91C81.6307 1272.5 59.0429 1252.54 59.0429 1228.02C59.0429 1207.81 74.6481 1190 96.994 1184.7C99.7091 1184.06 102.048 1182.28 103.446 1179.8C104.844 1177.32 105.186 1174.35 104.387 1171.6C103.291 1167.83 102.733 1164.1 102.733 1160.52C102.733 1135.74 125.778 1115.58 154.099 1115.58C165.732 1115.58 176.747 1118.96 185.948 1125.36C189.798 1128.05 194.953 1127.66 198.401 1124.41C208.273 1115.09 221.634 1109.95 236.029 1109.95C264.356 1109.95 287.395 1130.11 287.395 1154.89C287.395 1167.03 281.864 1178.44 271.816 1187.02C271.816 1187.02 255.21 1184.3 246.285 1185.27C240.035 1185.95 240.774 1192.58 244.867 1193.11C244.88 1193.11 248.724 1193.62 254.551 1195.34C259.82 1196.95 266.547 1199.67 272.509 1203.52C272.589 1203.57 272.643 1203.65 272.71 1203.7C285.506 1212.33 292.845 1225.3 292.845 1239.27C292.838 1264.04 269.793 1284.2 241.473 1284.2Z" fill="black"/>
<path d="M69.6681 1297.43C53.9017 1297.43 41.0788 1310.64 41.0788 1326.87C41.0788 1343.11 53.9017 1356.32 69.6681 1356.32C85.4279 1356.32 98.2507 1343.11 98.2507 1326.87C98.2507 1310.64 85.4279 1297.43 69.6681 1297.43ZM69.6681 1342.48C61.3145 1342.48 54.5199 1335.48 54.5199 1326.88C54.5199 1318.29 61.3145 1311.28 69.6681 1311.28C78.0151 1311.28 84.8096 1318.28 84.8096 1326.87C84.8096 1335.47 78.0151 1342.48 69.6681 1342.48Z" fill="black"/>
<path d="M22.6241 1348.2C11.804 1348.2 3 1357.27 3 1368.41C3 1379.55 11.804 1388.62 22.6241 1388.62C33.4375 1388.62 42.2414 1379.55 42.2414 1368.41C42.2414 1357.27 33.4375 1348.2 22.6241 1348.2ZM22.6241 1374.78C19.2168 1374.78 16.4412 1371.92 16.4412 1368.42C16.4412 1364.91 19.2168 1362.05 22.6241 1362.05C26.0314 1362.05 28.8003 1364.91 28.8003 1368.42C28.8003 1371.92 26.0314 1374.78 22.6241 1374.78Z" fill="black"/>
<path d="M162.204 1126.15C148.682 1124.89 121.625 1130.1 116.195 1158.84C115.489 1162.59 117.861 1166.23 121.504 1166.95C121.934 1167.04 122.371 1167.09 122.794 1167.09C125.946 1167.09 128.762 1164.79 129.38 1161.49C133.823 1137.97 159.784 1139.85 161.001 1139.94C164.778 1140.25 167.95 1137.47 168.279 1133.67C168.629 1129.86 165.9 1126.5 162.204 1126.15Z" fill="black"/>
<path d="M69.6681 1297.43C53.9017 1297.43 41.0788 1310.64 41.0788 1326.87C41.0788 1343.11 53.9017 1356.32 69.6681 1356.32C85.4279 1356.32 98.2507 1343.11 98.2507 1326.87C98.2507 1310.64 85.4279 1297.43 69.6681 1297.43ZM69.6681 1342.48C61.3145 1342.48 54.5199 1335.48 54.5199 1326.88C54.5199 1318.29 61.3145 1311.28 69.6681 1311.28C78.0151 1311.28 84.8096 1318.28 84.8096 1326.87C84.8096 1335.47 78.0151 1342.48 69.6681 1342.48Z" fill="black"/>
<path d="M22.6241 1348.2C11.804 1348.2 3 1357.27 3 1368.41C3 1379.55 11.804 1388.62 22.6241 1388.62C33.4375 1388.62 42.2414 1379.55 42.2414 1368.41C42.2414 1357.27 33.4375 1348.2 22.6241 1348.2ZM22.6241 1374.78C19.2167 1374.78 16.4412 1371.92 16.4412 1368.42C16.4412 1364.91 19.2167 1362.05 22.6241 1362.05C26.0314 1362.05 28.8003 1364.91 28.8003 1368.42C28.8003 1371.92 26.0314 1374.78 22.6241 1374.78Z" fill="black"/>
<path d="M162.204 1126.15C148.682 1124.89 121.625 1130.1 116.195 1158.84C115.489 1162.59 117.861 1166.23 121.504 1166.95C121.934 1167.04 122.371 1167.09 122.794 1167.09C125.946 1167.09 128.762 1164.79 129.38 1161.49C133.823 1137.97 159.784 1139.85 161.001 1139.94C164.778 1140.25 167.95 1137.47 168.279 1133.67C168.629 1129.86 165.9 1126.5 162.204 1126.15Z" fill="black"/>
</g>
<path opacity="0.05" d="M565.963 1147.39C537.51 1149.88 516.944 1157.7 504.358 1168.05C491.772 1178.41 488.09 1190.3 487.18 1199.17L520.915 1199.23C521.751 1193.37 523.927 1187.4 529.905 1182.48C535.884 1177.56 545.544 1172.32 567.972 1170.35C590.064 1168.42 602.436 1171.04 609.493 1174.59C616.549 1178.14 619.669 1182.95 620.191 1188.92C621.858 1207.98 610.939 1214.26 595.086 1225.82C579.233 1237.39 558.426 1254.02 560.776 1280.88L561.278 1286.62L594.752 1283.69L594.25 1277.95C592.583 1258.89 602.498 1252.71 618.351 1241.14C634.204 1229.57 656.015 1212.86 653.665 1185.99C652.701 1174.97 645.925 1163.07 631.083 1155.35C615.906 1147.65 594.081 1144.93 565.963 1147.39ZM563.287 1309.58L565.296 1332.54L598.77 1329.61L596.761 1306.65L563.287 1309.58Z" fill="black"/>
<g opacity="0.1" clip-path="url(#clip4_66_2)">
<path d="M1181.34 1053.52C1190.46 1042.58 1195.54 1029.19 1195.54 1015.44C1195.54 980.268 1163.46 951.651 1124.01 951.651C1107.26 951.651 1091.43 956.746 1078.69 966.121C1067.62 960.213 1055.12 957.115 1042.09 957.115C1002.66 957.115 970.565 985.725 970.565 1020.9C970.565 1023.1 970.706 1025.33 970.982 1027.56C944.583 1037.3 926.874 1060.38 926.874 1086.44C926.874 1120.88 957.641 1149.03 995.955 1150.18C1009.68 1168.9 1033.07 1180.31 1058.47 1180.31C1079.26 1180.31 1098.73 1172.74 1112.83 1159.36C1118.3 1160.54 1123.88 1161.14 1129.47 1161.14C1168.9 1161.14 1201 1132.53 1201 1097.36C1201 1081 1193.82 1065.27 1181.34 1053.52ZM1129.47 1140.98C1123.76 1140.98 1118.07 1140.14 1112.54 1138.49C1108.77 1137.36 1104.69 1138.53 1102.09 1141.48C1091.62 1153.35 1075.7 1161.03 1058.47 1160.14C1004.67 1157.4 1005.12 1119.53 1005.12 1111.37C1005.11 1104.83 1006.03 1100.76 1006.03 1100.76C1007.15 1095.98 999.92 1094.32 998.825 1099.08C999.732 1096.07 994.248 1112.3 997.541 1130.02C969.631 1129.63 947.043 1110.24 947.043 1086.44C947.043 1066.82 962.648 1049.53 984.994 1044.39C987.709 1043.76 990.048 1042.04 991.446 1039.63C992.844 1037.22 993.186 1034.33 992.387 1031.67C991.291 1028.01 990.733 1024.39 990.733 1020.91C990.733 996.854 1013.78 977.284 1042.1 977.284C1053.73 977.284 1064.75 980.563 1073.95 986.773C1077.8 989.387 1082.95 989.011 1086.4 985.852C1096.27 976.806 1109.63 971.82 1124.03 971.82C1152.36 971.82 1175.39 991.39 1175.39 1015.44C1175.39 1027.23 1169.86 1038.31 1159.82 1046.64C1159.82 1046.64 1143.21 1043.99 1134.28 1044.94C1128.03 1045.6 1128.77 1052.04 1132.87 1052.55C1132.88 1052.55 1136.72 1053.04 1142.55 1054.72C1147.82 1056.28 1154.55 1058.92 1160.51 1062.66C1160.59 1062.71 1160.64 1062.78 1160.71 1062.83C1173.51 1071.21 1180.84 1083.8 1180.84 1097.36C1180.84 1121.41 1157.79 1140.98 1129.47 1140.98Z" fill="black"/>
<path d="M1181.34 1053.52C1190.46 1042.58 1195.54 1029.19 1195.54 1015.44C1195.54 980.268 1163.46 951.651 1124.01 951.651C1107.26 951.651 1091.43 956.746 1078.69 966.121C1067.62 960.213 1055.12 957.115 1042.09 957.115C1002.66 957.115 970.565 985.725 970.565 1020.9C970.565 1023.1 970.706 1025.33 970.982 1027.56C944.583 1037.3 926.874 1060.38 926.874 1086.44C926.874 1120.88 957.641 1149.03 995.955 1150.18C1009.68 1168.9 1033.07 1180.31 1058.47 1180.31C1079.26 1180.31 1098.73 1172.74 1112.83 1159.36C1118.3 1160.54 1123.88 1161.14 1129.47 1161.14C1168.9 1161.14 1201 1132.53 1201 1097.36C1201 1081 1193.82 1065.27 1181.34 1053.52ZM1129.47 1140.98C1123.76 1140.98 1118.07 1140.14 1112.54 1138.49C1108.77 1137.36 1104.69 1138.53 1102.09 1141.48C1091.62 1153.35 1075.7 1161.03 1058.47 1160.14C1004.67 1157.4 1005.12 1119.53 1005.12 1111.37C1005.11 1104.83 1006.03 1100.76 1006.03 1100.76C1007.15 1095.98 999.92 1094.32 998.825 1099.08C999.732 1096.07 994.248 1112.3 997.541 1130.02C969.631 1129.63 947.043 1110.24 947.043 1086.44C947.043 1066.82 962.648 1049.53 984.994 1044.39C987.709 1043.76 990.048 1042.04 991.446 1039.63C992.844 1037.22 993.186 1034.33 992.387 1031.67C991.291 1028.01 990.733 1024.39 990.733 1020.91C990.733 996.854 1013.78 977.284 1042.1 977.284C1053.73 977.284 1064.75 980.563 1073.95 986.773C1077.8 989.387 1082.95 989.011 1086.4 985.852C1096.27 976.806 1109.63 971.82 1124.03 971.82C1152.36 971.82 1175.39 991.39 1175.39 1015.44C1175.39 1027.23 1169.86 1038.31 1159.82 1046.64C1159.82 1046.64 1143.21 1043.99 1134.28 1044.94C1128.03 1045.6 1128.77 1052.04 1132.87 1052.55C1132.88 1052.55 1136.72 1053.04 1142.55 1054.72C1147.82 1056.28 1154.55 1058.92 1160.51 1062.66C1160.59 1062.71 1160.64 1062.78 1160.71 1062.83C1173.51 1071.21 1180.84 1083.8 1180.84 1097.36C1180.84 1121.41 1157.79 1140.98 1129.47 1140.98Z" fill="black"/>
<path d="M957.668 1153.83C941.902 1153.83 929.079 1166.65 929.079 1182.41C929.079 1198.18 941.902 1210.99 957.668 1210.99C973.428 1210.99 986.251 1198.18 986.251 1182.41C986.251 1166.65 973.428 1153.83 957.668 1153.83ZM957.668 1197.56C949.314 1197.56 942.52 1190.76 942.52 1182.42C942.52 1174.08 949.314 1167.27 957.668 1167.27C966.015 1167.27 972.81 1174.06 972.81 1182.41C972.81 1190.76 966.015 1197.56 957.668 1197.56Z" fill="black"/>
<path d="M910.624 1203.12C899.804 1203.12 891 1211.92 891 1222.73C891 1233.55 899.804 1242.35 910.624 1242.35C921.437 1242.35 930.241 1233.55 930.241 1222.73C930.241 1211.92 921.437 1203.12 910.624 1203.12ZM910.624 1228.92C907.217 1228.92 904.441 1226.14 904.441 1222.74C904.441 1219.34 907.217 1216.56 910.624 1216.56C914.031 1216.56 916.8 1219.34 916.8 1222.74C916.8 1226.14 914.031 1228.92 910.624 1228.92Z" fill="black"/>
<path d="M1050.2 987.546C1036.68 986.323 1009.62 991.383 1004.19 1019.28C1003.49 1022.92 1005.86 1026.45 1009.5 1027.16C1009.93 1027.24 1010.37 1027.28 1010.79 1027.28C1013.95 1027.28 1016.76 1025.05 1017.38 1021.85C1021.82 999.018 1047.78 1000.85 1049 1000.93C1052.78 1001.23 1055.95 998.534 1056.28 994.845C1056.63 991.141 1053.9 987.882 1050.2 987.546Z" fill="black"/>
<path d="M957.668 1153.83C941.902 1153.83 929.079 1166.65 929.079 1182.41C929.079 1198.18 941.902 1210.99 957.668 1210.99C973.428 1210.99 986.251 1198.18 986.251 1182.41C986.251 1166.65 973.428 1153.83 957.668 1153.83ZM957.668 1197.56C949.314 1197.56 942.52 1190.76 942.52 1182.42C942.52 1174.08 949.314 1167.27 957.668 1167.27C966.015 1167.27 972.81 1174.06 972.81 1182.41C972.81 1190.76 966.015 1197.56 957.668 1197.56Z" fill="black"/>
<path d="M910.624 1203.12C899.804 1203.12 891 1211.92 891 1222.73C891 1233.55 899.804 1242.35 910.624 1242.35C921.437 1242.35 930.241 1233.55 930.241 1222.73C930.241 1211.92 921.437 1203.12 910.624 1203.12ZM910.624 1228.92C907.217 1228.92 904.441 1226.14 904.441 1222.74C904.441 1219.34 907.217 1216.56 910.624 1216.56C914.031 1216.56 916.8 1219.34 916.8 1222.74C916.8 1226.14 914.031 1228.92 910.624 1228.92Z" fill="black"/>
<path d="M1050.2 987.546C1036.68 986.323 1009.62 991.383 1004.19 1019.28C1003.49 1022.92 1005.86 1026.45 1009.5 1027.16C1009.93 1027.24 1010.37 1027.28 1010.79 1027.28C1013.95 1027.28 1016.76 1025.05 1017.38 1021.85C1021.82 999.018 1047.78 1000.85 1049 1000.93C1052.78 1001.23 1055.95 998.534 1056.28 994.845C1056.63 991.142 1053.9 987.882 1050.2 987.546Z" fill="black"/>
</g>
<path opacity="0.05" d="M415.668 444C396.855 444 382.911 447.933 374.058 453.983C365.205 460.033 362.107 467.595 361 473.343L383.133 475.309C384.018 471.528 385.789 467.747 389.994 464.873C394.199 461.999 400.839 459.125 415.668 459.125C430.276 459.125 438.243 461.545 442.67 464.268C447.097 466.99 448.867 470.318 448.867 474.25C448.867 486.804 441.342 490.283 430.276 496.938C419.209 503.593 404.602 513.273 404.602 530.969V534.75H426.734V530.969C426.734 518.415 433.596 514.937 444.662 508.282C455.728 501.627 471 491.947 471 474.25C471 466.99 467.237 458.823 457.942 452.924C448.425 447.025 434.26 444 415.668 444ZM404.602 549.875V565H426.734V549.875H404.602Z" fill="black"/>
<path opacity="0.05" d="M168.179 9.86165C149.652 6.59483 135.237 8.0463 125.468 12.4671C115.699 16.8878 111.334 23.7974 109.246 29.2654L130.701 35.0451C132.23 31.475 134.63 28.0587 139.27 25.9588C143.911 23.8589 150.949 22.1818 165.552 24.7569C179.938 27.2935 187.365 31.0603 191.251 34.5101C195.138 37.9599 196.304 41.5443 195.621 45.4171C193.441 57.7801 185.426 59.8993 173.372 64.5315C161.318 69.1637 145.251 76.1601 142.179 93.5875L141.522 97.3113L163.318 101.155L163.975 97.4308C166.155 85.0678 173.516 82.8333 185.57 78.2011C197.624 73.5688 214.344 66.6878 217.417 49.2604C218.678 42.1107 216.391 33.4139 208.261 25.9906C199.912 18.5288 186.488 13.09 168.179 9.86165ZM138.895 112.207L136.269 127.102L158.066 130.945L160.692 116.05L138.895 112.207Z" fill="black"/>
<path opacity="0.05" d="M1370.67 90.0005C1351.86 90.0005 1337.91 93.933 1329.06 99.983C1320.21 106.033 1317.11 113.595 1316 119.343L1338.13 121.309C1339.02 117.528 1340.79 113.747 1344.99 110.873C1349.2 107.999 1355.84 105.125 1370.67 105.125C1385.28 105.125 1393.24 107.545 1397.67 110.268C1402.1 112.99 1403.87 116.318 1403.87 120.25C1403.87 132.804 1396.34 136.283 1385.28 142.938C1374.21 149.593 1359.6 159.273 1359.6 176.969V180.75H1381.73V176.969C1381.73 164.415 1388.6 160.937 1399.66 154.282C1410.73 147.627 1426 137.947 1426 120.25C1426 112.99 1422.24 104.823 1412.94 98.9242C1403.42 93.0255 1389.26 90.0005 1370.67 90.0005ZM1359.6 195.875V211H1381.73V195.875H1359.6Z" fill="black"/>
<path opacity="0.05" d="M1325.99 682.955C1312.68 696.258 1305.6 708.898 1303.62 719.436C1301.64 729.974 1304.8 737.513 1308.08 742.36L1325.12 728.1C1323.07 724.8 1321.65 720.874 1322.59 715.869C1323.53 710.863 1326.19 704.136 1336.68 693.65C1347.01 683.321 1354.35 679.398 1359.41 678.193C1364.47 676.988 1368.07 678.089 1370.85 680.87C1379.73 689.747 1376.87 697.528 1373.75 710.059C1370.63 722.589 1367.14 739.763 1379.66 752.277L1382.33 754.95L1397.98 739.3L1395.31 736.626C1386.43 727.749 1388.82 720.438 1391.94 707.907C1395.06 695.376 1399.01 677.733 1386.5 665.22C1381.37 660.086 1372.93 656.971 1362.19 659.373C1351.29 661.932 1339.13 669.809 1325.99 682.955ZM1393.03 765.645L1403.72 776.34L1419.37 760.69L1408.68 749.995L1393.03 765.645Z" fill="black"/>
<defs>
<clipPath id="clip0_66_2">
<rect width="310" height="319.32" fill="white" transform="translate(631 246)"/>
</clipPath>
<clipPath id="clip1_66_2">
<rect width="310" height="319.32" fill="white" transform="matrix(-1 0 0 1 313 215.013)"/>
</clipPath>
<clipPath id="clip2_66_2">
<rect width="310" height="319.32" fill="white" transform="translate(526 650)"/>
</clipPath>
<clipPath id="clip3_66_2">
<rect width="310" height="319.32" fill="white" transform="translate(3 1079.24)"/>
</clipPath>
<clipPath id="clip4_66_2">
<rect width="310" height="310" fill="white" transform="translate(891 942)"/>
</clipPath>
</defs>
</svg>
