<svg enable-background="new 0 0 512 512" height="512" viewBox="0 0 512 512" width="512" xmlns="http://www.w3.org/2000/svg"><g fill="#fc6e51"><path d="m501.341 37.339c-198.81 0-365.87 135.967-413.213 319.995h22.047c4.734-17.358 10.608-34.405 17.671-51.108 10.156-24.016 22.734-47.172 37.375-68.843 14.5-21.468 31.156-41.656 49.499-59.999 18.344-18.343 38.546-35 59.999-49.515 21.688-14.625 44.844-27.203 68.843-37.359 49.968-21.125 103.046-31.843 157.779-31.843 5.89 0 10.655-4.781 10.655-10.672s-4.766-10.656-10.655-10.656z"/><path d="m501.341 122.666c-198.81 0-365.87 135.966-413.213 319.995h22.047c4.734-17.344 10.608-34.406 17.671-51.109 10.156-23.999 22.734-47.17 37.375-68.842 14.5-21.453 31.156-41.656 49.499-60 18.344-18.343 38.546-34.999 59.999-49.499 21.688-14.641 44.844-27.218 68.843-37.375 49.968-21.125 103.046-31.843 157.779-31.843 5.89 0 10.655-4.766 10.655-10.656s-4.766-10.671-10.655-10.671z"/><path d="m501.341 207.993c-110.093 0-210.435 41.687-286.105 110.139h6.297v23.266c16.5-15.734 34.343-30.125 53.187-42.859 21.688-14.641 44.844-27.203 68.843-37.359 49.968-21.14 103.046-31.843 157.779-31.843 5.89 0 10.655-4.781 10.655-10.671-.001-5.892-4.767-10.673-10.656-10.673z"/></g><path d="m157.033 175.978 48.531 98.31 108.498 15.766-78.499 76.546 18.531 108.061-97.061-51.031-97.029 51.031 18.531-108.061-78.531-76.546 108.515-15.766z" fill="#ffce54"/></svg>